<?xml version="1.0" encoding="UTF-8" standalone="no"?>
<!-- Created with Inkscape (http://www.inkscape.org/) -->

<svg
   xmlns:dc="http://purl.org/dc/elements/1.1/"
   xmlns:cc="http://creativecommons.org/ns#"
   xmlns:rdf="http://www.w3.org/1999/02/22-rdf-syntax-ns#"
   xmlns:svg="http://www.w3.org/2000/svg"
   xmlns="http://www.w3.org/2000/svg"
   xmlns:sodipodi="http://sodipodi.sourceforge.net/DTD/sodipodi-0.dtd"
   xmlns:inkscape="http://www.inkscape.org/namespaces/inkscape"
   version="1.1"
   id="svg71"
   width="273.06668"
   height="273.06668"
   viewBox="0 0 273.06668 273.06668"
   sodipodi:docname="contact-icon-2.svg"
   inkscape:version="0.92.4 (unknown)">
  <path
     style="stroke-width:1.06666672"
     d="m 11.06139,233.22066 c -1.8362403,-0.79911 -3.6279303,-1.92104 -3.9815403,-2.49319 -0.51128,-0.82727 90.0607303,-79.75083 94.7819303,-82.59203 0.75571,-0.45479 7.74465,4.95267 17.5775,13.6 8.97764,7.89523 16.66997,14.35496 17.09406,14.35496 0.42409,0 8.11642,-6.45973 17.09406,-14.35496 9.83285,-8.64733 16.82179,-14.05479 17.5775,-13.6 3.87259,2.33051 95.34128,81.68699 94.92719,82.35699 -0.27371,0.44288 -2.13794,1.5836 -4.14273,2.53493 -3.29717,1.56461 -15.28732,1.72572 -125.61723,1.68796 C 35.8548,234.68092 13.81274,234.418 11.06139,233.22066 Z M -2.6284425e-7,138.16841 V 57.318528 L 2.3999997,59.466226 c 1.32,1.181234 22.4796303,19.574373 47.0213903,40.873644 l 44.62139,38.72594 -2.48806,2.37097 C 89.26689,143.61695 6.0579297,214.22182 1.8489497,217.55434 0.09817974,218.94055 -2.6284431e-7,214.72513 -2.6284425e-7,138.16841 Z M 227.73334,180.86114 c -24.64,-20.91097 -45.68042,-38.87263 -46.7565,-39.9148 -1.88588,-1.82647 -0.26882,-3.36357 44.8,-42.584959 l 46.75651,-40.690101 0.27941,40.621883 c 0.15369,22.342037 0.15369,58.614237 0,80.604897 l -0.27941,39.98302 z M 71.58165,101.57009 C 36.15155,71.177606 7.2177897,45.871386 7.2843997,45.334047 c 0.0666,-0.537341 1.68739,-1.816983 3.6017203,-2.84365 3.2567,-1.746589 11.32325,-1.866666 125.39817,-1.866666 125.89716,0 127.23785,0.04163 129.70153,4.027949 0.53318,0.862714 -126.83849,111.19418 -129.23029,111.94143 -0.41554,0.12982 -29.74378,-24.63054 -65.17388,-55.02302 z"
     id="path112"
     inkscape:connector-curvature="0" />
</svg>
