<?xml version="1.0" encoding="UTF-8" standalone="no"?>
<!-- Created with Inkscape (http://www.inkscape.org/) -->

<svg
   xmlns:dc="http://purl.org/dc/elements/1.1/"
   xmlns:cc="http://creativecommons.org/ns#"
   xmlns:rdf="http://www.w3.org/1999/02/22-rdf-syntax-ns#"
   xmlns:svg="http://www.w3.org/2000/svg"
   xmlns="http://www.w3.org/2000/svg"
   xmlns:sodipodi="http://sodipodi.sourceforge.net/DTD/sodipodi-0.dtd"
   xmlns:inkscape="http://www.inkscape.org/namespaces/inkscape"
   version="1.1"
   id="svg61"
   width="273.06668"
   height="273.06668"
   viewBox="0 0 273.06668 273.06668"
   sodipodi:docname="contact-icon-3.svg"
   inkscape:version="0.92.4 (unknown)">
  <path
     style="stroke-width:1.06666672"
     d="M 203.50381,273.20051 C 159.86533,268.30341 110.40969,238.64946 64.140278,189.63715 18.723948,141.52849 -0.46406176,103.03451 1.7032382,64.379246 c 0.77986,-13.909375 2.69312,-21.497793 8.3158498,-32.982425 4.95273,-10.116125 16.64035,-23.3951331 23.84121,-27.0874186 5.28289,-2.7088363 14.64602,-2.9597283 19.24351,-0.515644 5.30544,2.8204392 50.375662,48.7952466 52.227552,53.2757906 2.19202,5.303453 2.03274,12.159244 -0.40349,17.367594 -1.10128,2.354407 -7.275732,9.487425 -13.776532,15.915307 l -11.78078,11.64864 1.68615,3.28469 c 9.47466,18.4571 23.258592,37.42953 37.647102,51.81803 14.54631,14.54632 29.28831,25.36396 50.78025,37.26241 l 4.38023,2.42501 9.9188,-10.25294 c 11.60618,-11.99719 17.59123,-16.26441 24.2024,-17.25581 9.74829,-1.46185 11.45547,-0.29256 38.03719,26.05271 15.51823,15.38019 25.10955,25.72011 26.37658,28.43529 4.37646,9.37849 1.55046,18.45971 -8.86809,28.49723 -11.92774,11.49151 -23.09192,17.62631 -37.31572,20.50531 -8.97677,1.81696 -10.13556,1.83878 -22.71164,0.42749 z"
     id="path133"
     inkscape:connector-curvature="0" />
</svg>
