<?xml version="1.0" encoding="UTF-8" standalone="no"?>
<!-- Created with Inkscape (http://www.inkscape.org/) -->

<svg
   xmlns:dc="http://purl.org/dc/elements/1.1/"
   xmlns:cc="http://creativecommons.org/ns#"
   xmlns:rdf="http://www.w3.org/1999/02/22-rdf-syntax-ns#"
   xmlns:svg="http://www.w3.org/2000/svg"
   xmlns="http://www.w3.org/2000/svg"
   xmlns:sodipodi="http://sodipodi.sourceforge.net/DTD/sodipodi-0.dtd"
   xmlns:inkscape="http://www.inkscape.org/namespaces/inkscape"
   version="1.1"
   id="svg81"
   width="273.06668"
   height="273.06668"
   viewBox="0 0 273.06668 273.06668"
   sodipodi:docname="contact-icon-1.svg"
   inkscape:version="0.92.4 (unknown)">
  <path
     style="stroke-width:1.06666672"
     d="M 132.72782,270.13335 C 127.49912,264.50983 105.91006,237.2404 96.626541,224.53334 70.715961,189.06758 48.479971,150.8862 41.874071,130.51796 36.350761,113.4877 36.034761,90.48953 41.087651,73.283645 50.339401,41.780034 74.126691,16.449733 104.38818,5.8769985 155.42677,-11.954825 210.79429,13.50498 231.28175,64.226851 c 8.00643,19.821901 8.75752,46.957449 1.86854,67.506489 -8.83102,26.34191 -40.41114,76.5864 -75.75869,120.53334 -15.28968,19.00937 -16.98572,20.8 -19.7012,20.8 -1.22935,0 -3.46252,-1.32 -4.96258,-2.93333 z M 151.56046,150.5165 c 18.45972,-5.37241 31.88749,-19.30785 36.80825,-38.1999 6.60529,-25.359422 -9.41809,-53.02599 -35.74498,-61.718584 -7.86374,-2.596447 -22.00292,-2.596447 -29.86666,0 -26.326879,8.692594 -42.350259,36.359162 -35.744969,61.718584 7.5759,29.08585 36.680889,46.31027 64.548359,38.1999 z"
     id="path91"
     inkscape:connector-curvature="0" />
</svg>
