<?xml version="1.0" encoding="UTF-8" standalone="no"?>
<!-- Created with Inkscape (http://www.inkscape.org/) -->

<svg
   xmlns:dc="http://purl.org/dc/elements/1.1/"
   xmlns:cc="http://creativecommons.org/ns#"
   xmlns:rdf="http://www.w3.org/1999/02/22-rdf-syntax-ns#"
   xmlns:svg="http://www.w3.org/2000/svg"
   xmlns="http://www.w3.org/2000/svg"
   xmlns:sodipodi="http://sodipodi.sourceforge.net/DTD/sodipodi-0.dtd"
   xmlns:inkscape="http://www.inkscape.org/namespaces/inkscape"
   version="1.1"
   id="svg64"
   width="84.785858"
   height="84.663597"
   viewBox="0 0 84.785858 84.663597"
   sodipodi:docname="play-icon.svg"
   inkscape:version="0.92.4 (unknown)">
  <path
     style="stroke-width:1.33333325"
     d="M 28.420801,82.517916 C 4.9895414,74.145553 -6.4127186,47.416797 3.6971814,24.561695 7.1786714,16.691211 16.986491,6.8535459 25.049061,3.1448549 c 9.76407,-4.4913661 26.44599,-4.12550927 36.47586,0.7999647 8.69994,4.2723666 16.190184,11.9625124 20.256482,20.7970834 4.00594,8.703434 4.00594,26.289644 0,34.993079 -4.037737,8.772516 -11.544632,16.520993 -20.026142,20.670609 -9.71785,4.754498 -23.49641,5.627613 -33.33446,2.112325 z m 18.87979,-31.07633 c 6.97232,-4.471604 12.67694,-8.601924 12.67694,-9.178489 0,-1.215961 -24.87148,-17.357987 -26.74502,-17.357987 -0.72006,0 -1.25498,7.388162 -1.25498,17.333332 0,10.576936 0.51572,17.333333 1.32306,17.333333 0.72768,0 7.02768,-3.658585 14,-8.130189 z"
     id="path74"
     inkscape:connector-curvature="0" />
</svg>
