<?xml version="1.0" encoding="UTF-8" standalone="no"?>
<!-- Generator: Adobe Illustrator 16.0.0, SVG Export Plug-In . SVG Version: 6.00 Build 0)  -->

<svg
   xmlns:dc="http://purl.org/dc/elements/1.1/"
   xmlns:cc="http://creativecommons.org/ns#"
   xmlns:rdf="http://www.w3.org/1999/02/22-rdf-syntax-ns#"
   xmlns:svg="http://www.w3.org/2000/svg"
   xmlns="http://www.w3.org/2000/svg"
   xmlns:sodipodi="http://sodipodi.sourceforge.net/DTD/sodipodi-0.dtd"
   xmlns:inkscape="http://www.inkscape.org/namespaces/inkscape"
   version="1.1"
   id="Capa_1"
   x="0px"
   y="0px"
   width="429.20001"
   height="349.99649"
   viewBox="0 0 429.20002 349.9965"
   xml:space="preserve"
   sodipodi:docname="project-square-icon-2.svg"
   inkscape:version="0.92.4 (unknown)">
<g
   id="g91"
   transform="translate(-6.2459841e-4,-39.6015)">
	<path
   d="M 428.413,350.659 412.3,311.793 c -2.188,-5.273 -8.236,-7.777 -13.514,-5.592 -5.271,2.187 -7.775,8.234 -5.588,13.513 l 6.553,15.807 -34.943,-14.46 V 166.956 c 0,-4.346 -2.715,-8.228 -6.801,-9.716 L 224.94,108.764 V 74.901 l 12.101,12.102 c 2.019,2.019 4.665,3.028 7.313,3.028 2.644,0 5.291,-1.01 7.311,-3.028 4.038,-4.039 4.038,-10.584 0,-14.621 L 221.912,42.63 c -4.039,-4.037 -10.582,-4.039 -14.621,0 l -29.754,29.752 c -4.037,4.037 -4.037,10.582 0,14.621 4.037,4.036 10.585,4.038 14.625,0 l 12.1,-12.102 v 33.863 L 71.196,157.241 c -4.085,1.488 -6.801,5.37 -6.801,9.716 v 154.104 l -34.943,14.46 6.553,-15.807 c 2.188,-5.277 -0.316,-11.326 -5.589,-13.513 -5.281,-2.188 -11.326,0.317 -13.513,5.592 L 0.79,350.659 c -1.052,2.533 -1.052,5.382 -0.003,7.916 1.05,2.533 3.062,4.547 5.596,5.596 l 38.869,16.112 c 1.294,0.537 2.635,0.791 3.954,0.791 4.055,0 7.906,-2.401 9.555,-6.385 2.187,-5.272 -0.315,-11.322 -5.592,-13.51 l -15.808,-6.553 37.18,-15.388 136.523,49.735 c 0,0 1.945,0.625 3.551,0.625 1.606,0 3.522,-0.625 3.522,-0.625 l 136.523,-49.735 37.18,15.388 -15.809,6.553 c -5.275,2.188 -7.777,8.236 -5.592,13.51 1.65,3.983 5.5,6.385 9.555,6.385 1.32,0 2.66,-0.254 3.955,-0.791 l 38.869,-16.112 c 2.533,-1.049 4.545,-3.062 5.596,-5.596 1.049,-2.535 1.049,-5.383 -10e-4,-7.916 z M 204.261,364.491 102.822,327.54 204.261,286.408 Z m 0,-100.381 -119.188,48.107 V 182.896 L 204.261,231 Z m 0,-55.407 -101.479,-40.96 101.479,-36.969 z m 20.679,-77.929 101.48,36.969 -101.48,40.96 z m 0,233.717 V 286.408 L 326.379,327.54 Z M 344.127,312.217 224.94,264.11 v -33.109 l 119.189,-48.104 v 129.32 z"
   id="path89"
   inkscape:connector-curvature="0" />
</g>
<g
   id="g93"
   transform="translate(-6.2459841e-4,-39.6015)">
</g>
<g
   id="g95"
   transform="translate(-6.2459841e-4,-39.6015)">
</g>
<g
   id="g97"
   transform="translate(-6.2459841e-4,-39.6015)">
</g>
<g
   id="g99"
   transform="translate(-6.2459841e-4,-39.6015)">
</g>
<g
   id="g101"
   transform="translate(-6.2459841e-4,-39.6015)">
</g>
<g
   id="g103"
   transform="translate(-6.2459841e-4,-39.6015)">
</g>
<g
   id="g105"
   transform="translate(-6.2459841e-4,-39.6015)">
</g>
<g
   id="g107"
   transform="translate(-6.2459841e-4,-39.6015)">
</g>
<g
   id="g109"
   transform="translate(-6.2459841e-4,-39.6015)">
</g>
<g
   id="g111"
   transform="translate(-6.2459841e-4,-39.6015)">
</g>
<g
   id="g113"
   transform="translate(-6.2459841e-4,-39.6015)">
</g>
<g
   id="g115"
   transform="translate(-6.2459841e-4,-39.6015)">
</g>
<g
   id="g117"
   transform="translate(-6.2459841e-4,-39.6015)">
</g>
<g
   id="g119"
   transform="translate(-6.2459841e-4,-39.6015)">
</g>
<g
   id="g121"
   transform="translate(-6.2459841e-4,-39.6015)">
</g>
</svg>